<?xml version="1.0" standalone="no"?><!DOCTYPE svg PUBLIC "-//W3C//DTD SVG 1.1//EN" "http://www.w3.org/Graphics/SVG/1.1/DTD/svg11.dtd"><svg t="1614753518551" class="icon" viewBox="0 0 1024 1024" version="1.1" xmlns="http://www.w3.org/2000/svg" p-id="2076" width="200" height="200" xmlns:xlink="http://www.w3.org/1999/xlink"><defs><style type="text/css"></style></defs><path d="M924.83 339.93a448 448 0 1 0 35.11 173.87 445 445 0 0 0-35.11-173.87zM799 799.54c-76.32 76.33-177.8 118.37-285.75 118.37s-209.42-42-285.75-118.37-118.32-177.8-118.32-285.74 42-209.43 118.36-285.75 177.81-118.36 285.75-118.36 209.43 42 285.75 118.36S917.4 405.85 917.4 513.8 875.37 723.22 799 799.54z" p-id="2077" fill="#cccccc"></path><path d="M551 413.47H397.62l91-67.14a21.27 21.27 0 0 0-25.26-34.23L315.49 421.21a21.27 21.27 0 0 0 0 34.23l147.87 109.12a21.27 21.27 0 0 0 25.26-34.23L387.91 456H551a103.71 103.71 0 0 1 103.54 103.6v55.22A103.71 103.71 0 0 1 551 718.41a21.27 21.27 0 0 0 0 42.59c80.58 0 146.13-65.55 146.13-146.13V559.6c-0.05-80.6-65.6-146.13-146.13-146.13z" p-id="2078" fill="#cccccc"></path></svg>