<?xml version="1.0" standalone="no"?><!DOCTYPE svg PUBLIC "-//W3C//DTD SVG 1.1//EN" "http://www.w3.org/Graphics/SVG/1.1/DTD/svg11.dtd"><svg t="1608113469621" class="icon" viewBox="0 0 1024 1024" version="1.1" xmlns="http://www.w3.org/2000/svg" p-id="5837" width="256" height="256" xmlns:xlink="http://www.w3.org/1999/xlink"><defs><style type="text/css"></style></defs><path d="M623.658667 288a42.666667 42.666667 0 0 1 42.666666 42.666667V768a42.666667 42.666667 0 0 1-42.666666 42.666667H256a42.666667 42.666667 0 0 1-42.666667-42.666667V330.666667a42.666667 42.666667 0 0 1 42.666667-42.666667h367.658667z m0 42.666667H256V768h367.658667V330.666667z" fill="#CCC" p-id="5838"></path><path d="M736 192c29.098667 0 52.992 22.101333 55.893333 50.432l0.298667 5.76v455.082667a64 64 0 0 1-57.856 63.701333l-6.144 0.298667H674.133333v-42.666667h54.058667a21.333333 21.333333 0 0 0 20.992-17.493333l0.341333-3.84V248.192a13.525333 13.525333 0 0 0-10.410666-13.184L736 234.666667H387.541333a13.525333 13.525333 0 0 0-13.141333 10.410666l-0.341333 3.114667v34.816h-42.666667v-34.816c0-29.098667 22.101333-53.034667 50.432-55.893333L387.541333 192h348.458667z" fill="#CCC" p-id="5839"></path><path d="M561.792 371.2a21.333333 21.333333 0 0 1 3.84 42.325333l-3.84 0.341334H317.866667a21.333333 21.333333 0 0 1-3.84-42.325334l3.84-0.341333h243.925333zM561.792 475.733333a21.333333 21.333333 0 0 1 3.84 42.325334l-3.84 0.341333H317.866667a21.333333 21.333333 0 0 1-3.84-42.325333l3.84-0.341334h243.925333zM561.792 580.266667a21.333333 21.333333 0 0 1 3.84 42.325333l-3.84 0.341333H317.866667a21.333333 21.333333 0 0 1-3.84-42.325333l3.84-0.341333h243.925333zM561.792 684.8a21.333333 21.333333 0 0 1 3.84 42.325333l-3.84 0.341334H317.866667a21.333333 21.333333 0 0 1-3.84-42.325334l3.84-0.341333h243.925333z" fill="#CCC" p-id="5840"></path></svg>