<?xml version="1.0" standalone="no"?><!DOCTYPE svg PUBLIC "-//W3C//DTD SVG 1.1//EN" "http://www.w3.org/Graphics/SVG/1.1/DTD/svg11.dtd"><svg t="1615269387514" class="icon" viewBox="0 0 1024 1024" version="1.1" xmlns="http://www.w3.org/2000/svg" p-id="2709" width="200" height="200" xmlns:xlink="http://www.w3.org/1999/xlink"><defs><style type="text/css"></style></defs><path d="M552.96 61.44c30.72-30.72 81.92-30.72 107.52 0l281.6 291.84c30.72 30.72 30.72 76.8 0 107.52L563.2 839.68c-71.68 71.68-184.32 71.68-250.88 0L97.28 624.64c-30.72-30.72-30.72-76.8 0-107.52L552.96 61.44zM133.12 552.96c-10.24 10.24-10.24 25.6 0 35.84l215.04 215.04c51.2 51.2 133.12 51.2 179.2 0l378.88-378.88c10.24-10.24 10.24-25.6 0-35.84L624.64 97.28c-10.24-10.24-25.6-10.24-35.84 0L133.12 552.96z" p-id="2710" fill="#cccccc"></path><path d="M230.4 424.96l35.84-35.84 353.28 358.4-35.84 35.84z m-97.28 476.16c-15.36 0-25.6-10.24-25.6-25.6s10.24-25.6 25.6-25.6h727.04c15.36 0 25.6 10.24 25.6 25.6s-10.24 25.6-25.6 25.6H133.12z" p-id="2711" fill="#cccccc"></path></svg>