<?xml version="1.0" standalone="no"?><!DOCTYPE svg PUBLIC "-//W3C//DTD SVG 1.1//EN" "http://www.w3.org/Graphics/SVG/1.1/DTD/svg11.dtd"><svg t="1609232641387" class="icon" viewBox="0 0 1024 1024" version="1.1" xmlns="http://www.w3.org/2000/svg" p-id="42155" width="256" height="256" xmlns:xlink="http://www.w3.org/1999/xlink"><defs><style type="text/css"></style></defs><path d="M512 0C230.4 0 0 230.4 0 512s230.4 512 512 512 512-230.4 512-512S793.6 0 512 0z" fill="#FFA500" p-id="42156"></path><path d="M512 685.511111c-36.977778 0-65.422222 31.288889-65.422222 65.422222s31.288889 65.422222 65.422222 65.422223 65.422222-31.288889 65.422222-65.422223-28.444444-65.422222-65.422222-65.422222z m0-469.333333c-48.355556 0-88.177778 39.822222-88.177778 88.177778v11.377777l34.133334 273.066667c5.688889 25.6 28.444444 45.511111 54.044444 45.511111s51.2-19.911111 54.044444-45.511111l34.133334-273.066667v-11.377777c0-48.355556-39.822222-88.177778-88.177778-88.177778z" fill="#FFFFFF" p-id="42157"></path></svg>