<?xml version="1.0" standalone="no"?><!DOCTYPE svg PUBLIC "-//W3C//DTD SVG 1.1//EN" "http://www.w3.org/Graphics/SVG/1.1/DTD/svg11.dtd"><svg t="1609161000768" class="icon" viewBox="0 0 1024 1024" version="1.1" xmlns="http://www.w3.org/2000/svg" p-id="2937" xmlns:xlink="http://www.w3.org/1999/xlink" width="256" height="256"><defs><style type="text/css"></style></defs><path d="M496.64 714.752c-44.032 0-79.36 34.816-79.36 77.824 0 43.008 35.84 77.824 79.36 77.824s79.36-34.816 79.36-77.824c0-43.008-35.328-77.824-79.36-77.824zM496.64 117.76c-63.488 0-115.2 50.176-115.2 112.64 0 5.632 0.512 11.776 1.536 17.408h-1.536 1.536c2.048 11.264 5.12 22.016 10.24 32.256l66.048 321.024c1.536 8.192 5.12 15.872 9.728 22.528 13.312 17.92 40.448 42.496 62.976-12.288 2.56 1.536 57.344-269.312 71.168-338.432 5.12-12.8 8.192-27.136 8.192-41.984 0.512-62.976-51.2-113.152-114.688-113.152z" fill="#F56C6C" p-id="2938"></path></svg>