<?xml version="1.0" standalone="no"?><!DOCTYPE svg PUBLIC "-//W3C//DTD SVG 1.1//EN" "http://www.w3.org/Graphics/SVG/1.1/DTD/svg11.dtd"><svg t="1614753748773" class="icon" viewBox="0 0 1024 1024" version="1.1" xmlns="http://www.w3.org/2000/svg" p-id="3515" width="200" height="200" xmlns:xlink="http://www.w3.org/1999/xlink"><defs><style type="text/css"></style></defs><path d="M936 488h-84.8C838.4 320 704 185.6 536 172.8V88c0-12.8-11.2-24-24-24s-24 11.2-24 24v84.8C320 185.6 185.6 320 172.8 488H88c-12.8 0-24 11.2-24 24s11.2 24 24 24h84.8C185.6 704 320 838.4 488 851.2v84.8c0 12.8 11.2 24 24 24s24-11.2 24-24v-84.8C704 838.4 838.4 704 851.2 536h84.8c12.8 0 24-11.2 24-24s-11.2-24-24-24z m-124.8 0H641.6c-9.6-52.8-52.8-96-105.6-105.6V212.8c145.6 12.8 262.4 129.6 275.2 275.2z m-323.2 0h-64c8-32 33.6-56 64-64v64z m0 48v64c-32-8-56-33.6-64-64h64z m48 0h64c-8 32-33.6 56-64 64v-64z m0-48v-64c32 8 56 33.6 64 64h-64z m-48-275.2v169.6c-52.8 9.6-96 52.8-105.6 105.6H212.8c12.8-145.6 129.6-262.4 275.2-275.2zM212.8 536h169.6c9.6 52.8 52.8 96 105.6 105.6v169.6c-145.6-12.8-262.4-129.6-275.2-275.2z m323.2 275.2V641.6c52.8-9.6 96-52.8 105.6-105.6h169.6c-12.8 145.6-129.6 262.4-275.2 275.2z" p-id="3516" fill="#cccccc"></path></svg>