<?xml version="1.0" standalone="no"?><!DOCTYPE svg PUBLIC "-//W3C//DTD SVG 1.1//EN" "http://www.w3.org/Graphics/SVG/1.1/DTD/svg11.dtd"><svg t="1606806035506" class="icon" viewBox="0 0 1024 1024" version="1.1" xmlns="http://www.w3.org/2000/svg" p-id="1997" width="256" height="256" xmlns:xlink="http://www.w3.org/1999/xlink"><defs><style type="text/css"></style></defs><path d="M825.728 492.416h-58.816V335.488c0-43.328-35.072-78.4-78.4-78.4H531.584v-58.88a98.112 98.112 0 0 0-196.096 0v58.88h-156.8a78.08 78.08 0 0 0-78.08 78.4l-0.192 149.056h58.624a105.984 105.984 0 0 1 0 211.84h-58.624l-0.256 148.992c0 43.328 35.136 78.464 78.464 78.464H327.68v-58.88a105.984 105.984 0 0 1 211.776 0v58.88h149.056c43.328 0 78.4-35.136 78.4-78.464v-156.864h58.88a98.112 98.112 0 0 0 0-196.096z" fill="yellow" p-id="1998"></path></svg>