<?xml version="1.0" standalone="no"?><!DOCTYPE svg PUBLIC "-//W3C//DTD SVG 1.1//EN" "http://www.w3.org/Graphics/SVG/1.1/DTD/svg11.dtd"><svg t="1608867561641" class="icon" viewBox="0 0 1024 1024" version="1.1" xmlns="http://www.w3.org/2000/svg" p-id="3009" xmlns:xlink="http://www.w3.org/1999/xlink" width="2048" height="2048"><defs><style type="text/css"></style></defs><path d="M499.84 800a32 32 0 0 1-22.4-9.6l-45.44-45.44a32 32 0 0 0-22.4-9.6H115.84A96 96 0 0 1 19.84 640V192a96 96 0 0 1 96-96h768a96 96 0 0 1 96 96v448a96 96 0 0 1-96 96H590.72a32 32 0 0 0-22.4 9.6l-45.44 45.44a32 32 0 0 1-23.04 8.96z m-384-640a32 32 0 0 0-32 32v448a32 32 0 0 0 32 32H409.6a95.36 95.36 0 0 1 67.84 28.16l22.4 22.4 22.4-22.4a96.64 96.64 0 0 1 67.84-28.16h293.76a32 32 0 0 0 32-32V192a32 32 0 0 0-32-32z" p-id="3010" fill="#FFFF00"></path><path d="M819.84 352h-640a32 32 0 0 1 0-64h640a32 32 0 0 1 0 64zM819.84 544h-640a32 32 0 0 1 0-64h640a32 32 0 0 1 0 64zM371.84 932.48h-128a32 32 0 1 1 0-64h128a32 32 0 0 1 0 64zM755.84 932.48h-128a32 32 0 0 1 0-64h128a32 32 0 0 1 0 64z" p-id="3011" fill="#FFFF00"></path><path d="M883.84 896m-59.52 0a59.52 59.52 0 1 0 119.04 0 59.52 59.52 0 1 0-119.04 0Z" p-id="3012" fill="#FFFF00"></path><path d="M113.92 896m-59.52 0a59.52 59.52 0 1 0 119.04 0 59.52 59.52 0 1 0-119.04 0Z" p-id="3013" fill="#FFFF00"></path><path d="M495.36 896m-59.52 0a59.52 59.52 0 1 0 119.04 0 59.52 59.52 0 1 0-119.04 0Z" p-id="3014" fill="#FFFF00"></path></svg>