<?xml version="1.0" standalone="no"?><!DOCTYPE svg PUBLIC "-//W3C//DTD SVG 1.1//EN" "http://www.w3.org/Graphics/SVG/1.1/DTD/svg11.dtd"><svg class="icon" width="2048px" height="2048.00px" viewBox="0 0 1024 1024" version="1.1" xmlns="http://www.w3.org/2000/svg"><path fill="#1E90FF" d="M512 54.4c-208 0-416 54.4-416 160v598.4c0 105.6 208 160 416 160s416-54.4 416-160V214.4c0-105.6-208-160-416-160zM864 512c0 32-124.8 96-352 96S160 544 160 512V300.8c76.8 48 214.4 70.4 352 70.4s275.2-25.6 352-70.4V512zM512 118.4c227.2 0 352 64 352 96s-124.8 96-352 96-352-64-352-96 124.8-96 352-96z m0 787.2c-227.2 0-352-64-352-96v-211.2c76.8 48 214.4 70.4 352 70.4s275.2-25.6 352-70.4v211.2c0 35.2-124.8 96-352 96z" /></svg>