<?xml version="1.0" standalone="no"?><!DOCTYPE svg PUBLIC "-//W3C//DTD SVG 1.1//EN" "http://www.w3.org/Graphics/SVG/1.1/DTD/svg11.dtd"><svg t="1613806708849" class="icon" viewBox="0 0 1024 1024" version="1.1" xmlns="http://www.w3.org/2000/svg" p-id="2703" width="200" height="200" xmlns:xlink="http://www.w3.org/1999/xlink"><defs><style type="text/css"></style></defs><path d="M385.9456 771.84C173.056 771.84 0 598.7328 0 385.9456 0 173.056 173.1072 0 385.9456 0c212.7872 0 385.8944 173.1072 385.8944 385.9456 0 212.7872-173.1072 385.8944-385.8944 385.8944z m0-712.704a327.168 327.168 0 0 0-326.8608 326.8096 327.168 327.168 0 0 0 326.8608 326.8096 327.168 327.168 0 0 0 326.8096-326.8096 327.168 327.168 0 0 0-326.8096-326.8608z" p-id="2704" fill="#dddddd"></path><path d="M972.3392 1022.976a29.44 29.44 0 0 1-20.8896-8.704l-345.1904-345.1392a29.5424 29.5424 0 1 1 41.7792-41.7792l345.1904 345.1904a29.5424 29.5424 0 0 1-20.8896 50.432z" p-id="2705" fill="#dddddd"></path><path d="M614.4 358.4v51.2H153.6V358.4z" p-id="2706" fill="#dddddd"></path></svg>