<?xml version="1.0" standalone="no"?><!DOCTYPE svg PUBLIC "-//W3C//DTD SVG 1.1//EN" "http://www.w3.org/Graphics/SVG/1.1/DTD/svg11.dtd"><svg t="1610011724572" class="icon" viewBox="0 0 1024 1024" version="1.1" xmlns="http://www.w3.org/2000/svg" p-id="5009" width="256" height="256" xmlns:xlink="http://www.w3.org/1999/xlink"><defs><style type="text/css"></style></defs><path d="M512 512m-512 0a512 512 0 1 0 1024 0 512 512 0 1 0-1024 0Z" fill="#8e9cad" p-id="5010"></path><path d="M341.333333 298.666667m64 0l0 0q64 0 64 64l0 298.666666q0 64-64 64l0 0q-64 0-64-64l0-298.666666q0-64 64-64Z" fill="#333840" p-id="5011"></path><path d="M554.666667 298.666667m64 0l0 0q64 0 64 64l0 298.666666q0 64-64 64l0 0q-64 0-64-64l0-298.666666q0-64 64-64Z" fill="#333840" p-id="5012"></path></svg>