<?xml version="1.0" standalone="no"?><!DOCTYPE svg PUBLIC "-//W3C//DTD SVG 1.1//EN" "http://www.w3.org/Graphics/SVG/1.1/DTD/svg11.dtd"><svg t="1610011626809" class="icon" viewBox="0 0 1024 1024" version="1.1" xmlns="http://www.w3.org/2000/svg" p-id="4004" width="256" height="256" xmlns:xlink="http://www.w3.org/1999/xlink"><defs><style type="text/css"></style></defs><path d="M512 0c-282.758737 0-512 229.241263-512 512s229.241263 512 512 512 512-229.241263 512-512-229.241263-512-512-512z m0 976.006737c-256.269474 0-464.006737-207.737263-464.006737-464.006737s207.737263-464.006737 464.006737-464.006737 464.006737 207.737263 464.006737 464.006737-207.737263 464.006737-464.006737 464.006737z" fill="#8e9cad" p-id="4005"></path><path d="M512 47.993263c-256.269474 0-464.006737 207.737263-464.006737 464.006737s207.737263 464.006737 464.006737 464.006737 464.006737-207.737263 464.006737-464.006737-207.737263-464.006737-464.006737-464.006737z" fill="#8e9cad" p-id="4006"></path><path d="M707.745684 551.720421l-243.253895 158.935579c-37.861053 21.881263-68.823579 3.961263-68.823578-39.720421v-317.871158c0-43.708632 30.962526-61.574737 68.823578-39.720421l243.253895 158.935579c37.834105 21.854316 37.834105 57.586526 0 79.440842z" fill="#333840" p-id="4007"></path></svg>