<?xml version="1.0" standalone="no"?><!DOCTYPE svg PUBLIC "-//W3C//DTD SVG 1.1//EN" "http://www.w3.org/Graphics/SVG/1.1/DTD/svg11.dtd"><svg t="1613807155811" class="icon" viewBox="0 0 1316 1024" version="1.1" xmlns="http://www.w3.org/2000/svg" p-id="3029" width="257.03125" height="200" xmlns:xlink="http://www.w3.org/1999/xlink"><defs><style type="text/css"></style></defs><path d="M329.142857 73.142857h-292.571428a36.498286 36.498286 0 1 1 0-73.142857h292.571428a36.498286 36.498286 0 1 1 0 73.142857z" fill="#dddddd" p-id="3030"></path><path d="M0 329.142857v-292.571428a36.498286 36.498286 0 1 1 73.142857 0v292.571428a36.498286 36.498286 0 1 1-73.142857 0zM987.428571 73.142857h292.571429a36.498286 36.498286 0 1 0 0-73.142857h-292.571429a36.498286 36.498286 0 1 0 0 73.142857z" fill="#dddddd" p-id="3031"></path><path d="M1316.571429 329.142857v-292.571428a36.498286 36.498286 0 1 0-73.142858 0v292.571428a36.498286 36.498286 0 1 0 73.142858 0zM329.142857 950.857143h-292.571428a36.498286 36.498286 0 1 0 0 73.142857h292.571428a36.498286 36.498286 0 1 0 0-73.142857z" fill="#dddddd" p-id="3032"></path><path d="M0 694.857143v292.571428a36.498286 36.498286 0 1 0 73.142857 0v-292.571428a36.498286 36.498286 0 1 0-73.142857 0zM987.428571 950.857143h292.571429a36.498286 36.498286 0 1 1 0 73.142857h-292.571429a36.498286 36.498286 0 1 1 0-73.142857z" fill="#dddddd" p-id="3033"></path><path d="M1316.571429 694.857143v292.571428a36.498286 36.498286 0 1 1-73.142858 0v-292.571428a36.498286 36.498286 0 1 1 73.142858 0zM1026.925714 219.428571H289.645714c-38.765714 0-70.217143 27.940571-70.217143 62.390858v460.361142c0 34.377143 31.451429 62.390857 70.217143 62.390858h737.28c38.765714 0 70.217143-27.940571 70.217143-62.390858V281.819429c0-34.377143-31.451429-62.390857-70.217143-62.390858zM1024 727.990857c0 6.436571-5.851429 11.556571-13.092571 11.556572H305.737143c-7.314286 0-13.092571-5.12-13.092572-11.556572V296.009143c0-6.436571 5.851429-11.556571 13.092572-11.556572h705.243428c7.314286 0 13.092571 5.12 13.092572 11.556572v431.981714z" fill="#dddddd" p-id="3034"></path></svg>