<?xml version="1.0" standalone="no"?><!DOCTYPE svg PUBLIC "-//W3C//DTD SVG 1.1//EN" "http://www.w3.org/Graphics/SVG/1.1/DTD/svg11.dtd"><svg class="icon" width="200px" height="200.00px" viewBox="0 0 1024 1024" version="1.1" xmlns="http://www.w3.org/2000/svg"><path d="M524.8 224c-179.2 0-326.4 147.2-326.4 326.4s147.2 326.4 326.4 326.4 326.4-147.2 326.4-326.4S704 224 524.8 224z m0 620.8c-160 0-288-128-288-288s128-288 288-288 288 128 288 288-128 288-288 288z" fill="#5B8FD9" /><path d="M595.2 115.2c-64-38.4-147.2-12.8-185.6 51.2s-12.8 147.2 51.2 179.2c64 38.4 140.8 19.2 179.2-44.8 38.4-64 19.2-147.2-44.8-185.6z" fill="#E8BE62" /><path d="M576 147.2c-44.8-25.6-102.4-12.8-128 32s-12.8 102.4 32 128c44.8 25.6 102.4 12.8 128-32 25.6-38.4 12.8-96-32-128z" fill="#F9D65D" /><path d="M268.8 608c-64-38.4-147.2-12.8-179.2 51.2s-12.8 147.2 51.2 179.2c64 38.4 147.2 12.8 179.2-51.2s12.8-147.2-51.2-179.2z" fill="#66BF6C" /><path d="M249.6 640c-44.8-25.6-102.4-12.8-128 32-25.6 44.8-12.8 102.4 32 128 44.8 32 102.4 12.8 128-32 25.6-44.8 12.8-102.4-32-128z" fill="#68D279" /><path d="M889.6 608c-64-38.4-147.2-12.8-179.2 51.2s-12.8 147.2 51.2 179.2c64 38.4 147.2 12.8 179.2-51.2 38.4-64 12.8-147.2-51.2-179.2z" fill="#E86767" /><path d="M870.4 640c-44.8-25.6-102.4-12.8-128 32-25.6 44.8-12.8 102.4 32 128 44.8 25.6 102.4 12.8 128-32 32-44.8 12.8-102.4-32-128z" fill="#FE6D68" /></svg>